<svg width="7012" height="3219" viewBox="0 0 7012 3219" fill="none" xmlns="http://www.w3.org/2000/svg">
<path d="M10.5469 3095.42C10.5469 3098.79 13.2568 3101.5 16.626 3101.5C19.9951 3101.5 22.7051 3098.79 22.7051 3095.42C22.7051 3092.05 19.9951 3089.34 16.626 3089.34C13.2568 3089.34 10.5469 3092.05 10.5469 3095.42ZM12.6709 3191H20.5811V3114.83H12.6709V3191Z" fill="#AFAFAF" fill-opacity="0.76"/>
<path d="M73.0225 3211.07C61.4502 3211.07 53.3203 3204.84 52.2217 3196.93H44.0918C45.2637 3209.31 55.8105 3218.03 73.0225 3218.03C90.4541 3218.03 103.638 3208.21 103.638 3190.78V3114.83H96.0205V3127.94H95.7275C92.3584 3119.88 82.9834 3113.58 71.9238 3113.58C54.2725 3113.58 42.041 3126.33 42.041 3147.05V3155.77C42.041 3176.64 54.3457 3189.32 71.8506 3189.32C82.8369 3189.32 92.7979 3182.65 95.5078 3174.74H95.8008V3190.93C95.8008 3203.45 86.7188 3211.07 73.0225 3211.07ZM72.8027 3120.61C86.499 3120.61 95.8008 3131.6 95.8008 3147.93V3155.04C95.8008 3171.3 86.6455 3182.21 72.8027 3182.21C58.8135 3182.21 49.9512 3171.52 49.9512 3154.89V3148.08C49.9512 3131.09 58.7402 3120.61 72.8027 3120.61Z" fill="#AFAFAF" fill-opacity="0.76"/>
<path d="M156.299 3113.58C137.109 3113.58 124.805 3127.06 124.805 3148.23V3157.67C124.805 3178.84 137.183 3192.25 156.299 3192.25C175.415 3192.25 187.866 3178.84 187.866 3157.67V3148.23C187.866 3127.21 175.342 3113.58 156.299 3113.58ZM156.299 3120.61C170.435 3120.61 179.956 3130.87 179.956 3148.81V3157.09C179.956 3175.18 170.435 3185.14 156.372 3185.14C142.09 3185.14 132.715 3175.03 132.715 3157.09V3148.81C132.715 3130.72 142.163 3120.61 156.299 3120.61Z" fill="#AFAFAF" fill-opacity="0.76"/>
<path d="M208.887 3191H216.724V3145.3C216.724 3131.09 222.729 3121.05 236.572 3121.05C239.136 3121.05 241.772 3121.35 242.725 3121.49V3114.1C241.553 3113.95 239.868 3113.66 237.524 3113.66C224.927 3113.66 219.287 3120.76 217.017 3127.21H216.724V3114.83H208.887V3191Z" fill="#AFAFAF" fill-opacity="0.76"/>
<path d="M255.249 3135.19C255.249 3148.37 266.016 3152.33 280.444 3155.92C293.335 3159.14 301.465 3161.12 301.465 3170.57C301.465 3179.87 293.188 3185.36 281.104 3185.36C267.261 3185.36 261.475 3177.74 260.889 3171.15H253.125C253.125 3182.14 262.354 3192.25 280.591 3192.25C296.777 3192.25 309.375 3184.85 309.375 3169.98C309.375 3155.11 296.704 3152.04 282.861 3148.89C271.655 3146.18 263.086 3143.69 263.086 3134.53C263.086 3125.01 271.216 3120.47 281.47 3120.47C295.605 3120.47 299.854 3129.04 300.146 3134.82H307.69C307.69 3124.86 300.146 3113.58 281.763 3113.58C267.041 3113.58 255.249 3120.83 255.249 3135.19Z" fill="#AFAFAF" fill-opacity="0.76"/>
<path d="M329.224 3191H337.134V3144.49C337.134 3132.41 344.312 3120.83 359.546 3120.83C372.437 3120.83 380.2 3129.48 380.2 3142.66V3191H388.11V3141.56C388.11 3123.47 376.611 3113.58 361.23 3113.58C347.681 3113.58 340.063 3121.05 337.427 3127.43H337.134V3085.82H329.224V3191Z" fill="#AFAFAF" fill-opacity="0.76"/>
<path d="M438.867 3192.25C456.152 3192.25 465.381 3181.92 467.285 3171.37H459.302C457.617 3178.48 451.172 3185.36 439.087 3185.36C424.805 3185.36 416.016 3174.74 416.016 3157.16V3154.31H468.384V3149.18C468.384 3126.77 456.812 3113.58 438.208 3113.58C419.531 3113.58 408.105 3126.84 408.105 3148.74V3157.09C408.105 3178.99 419.678 3192.25 438.867 3192.25ZM416.016 3147.42V3147.2C416.016 3131.16 424.805 3120.54 438.208 3120.54C451.611 3120.54 460.4 3131.09 460.4 3147.2V3147.42H416.016Z" fill="#AFAFAF" fill-opacity="0.76"/>
<path d="M489.844 3191H497.754V3085.82H489.844V3191Z" fill="#AFAFAF" fill-opacity="0.76"/>
<path d="M550.928 3113.58C531.738 3113.58 519.434 3127.06 519.434 3148.23V3157.67C519.434 3178.84 531.812 3192.25 550.928 3192.25C570.044 3192.25 582.495 3178.84 582.495 3157.67V3148.23C582.495 3127.21 569.971 3113.58 550.928 3113.58ZM550.928 3120.61C565.063 3120.61 574.585 3130.87 574.585 3148.81V3157.09C574.585 3175.18 565.063 3185.14 551.001 3185.14C536.719 3185.14 527.344 3175.03 527.344 3157.09V3148.81C527.344 3130.72 536.792 3120.61 550.928 3120.61Z" fill="#AFAFAF" fill-opacity="0.76"/>
<path d="M635.229 3192.25C651.636 3192.25 665.039 3180.31 665.039 3158.41V3147.35C665.039 3126.33 652.441 3113.58 635.596 3113.58C621.606 3113.58 614.355 3122.45 611.499 3128.16H611.206V3114.83H603.589V3215.76H611.499V3178.18H611.792C614.941 3184.55 622.192 3192.25 635.229 3192.25ZM635.01 3185.14C620.435 3185.14 611.353 3173.5 611.353 3157.38V3147.93C611.353 3132.92 619.922 3120.61 634.79 3120.61C647.9 3120.61 657.129 3130.65 657.129 3148.01V3157.31C657.129 3175.99 647.095 3185.14 635.01 3185.14Z" fill="#AFAFAF" fill-opacity="0.76"/>
<path d="M706.055 3192.25C719.531 3192.25 726.855 3185.07 729.565 3179.72H729.858V3191H737.549V3137.17C737.549 3121.93 726.709 3113.58 711.035 3113.58C694.116 3113.58 685.547 3122.37 684.375 3134.82H691.919C693.311 3126.03 699.17 3120.54 710.669 3120.54C722.314 3120.54 729.639 3126.4 729.639 3138.34V3148.08H707.373C690.161 3148.08 681.226 3156.58 681.226 3169.47C681.226 3183.46 691.333 3192.25 706.055 3192.25ZM707.593 3185.36C697.485 3185.36 689.502 3179.57 689.502 3169.25C689.502 3160.75 694.995 3154.75 707.593 3154.75H729.639V3165.51C729.639 3177.38 719.824 3185.36 707.593 3185.36Z" fill="#AFAFAF" fill-opacity="0.76"/>
<path d="M788.525 3192.25C805.811 3192.25 815.039 3181.92 816.943 3171.37H808.96C807.275 3178.48 800.83 3185.36 788.745 3185.36C774.463 3185.36 765.674 3174.74 765.674 3157.16V3154.31H818.042V3149.18C818.042 3126.77 806.47 3113.58 787.866 3113.58C769.189 3113.58 757.764 3126.84 757.764 3148.74V3157.09C757.764 3178.99 769.336 3192.25 788.525 3192.25ZM765.674 3147.42V3147.2C765.674 3131.16 774.463 3120.54 787.866 3120.54C801.27 3120.54 810.059 3131.09 810.059 3147.2V3147.42H765.674Z" fill="#AFAFAF" fill-opacity="0.76"/>
<path d="M855.542 3191H863.965L891.87 3114.83H883.74L859.863 3180.97H859.497L836.353 3114.83H828.003L855.542 3191Z" fill="#AFAFAF" fill-opacity="0.76"/>
<path d="M984.595 3179.5C997.192 3179.5 1007.74 3168.44 1007.74 3148.15V3144.34C1007.74 3119.15 989.282 3095.49 955.884 3095.49H955.371C923.877 3095.49 901.245 3117.17 901.245 3151.52V3155.33C901.245 3190.63 924.829 3209.16 955.225 3209.16H955.811C967.017 3209.16 974.194 3207.63 978.516 3205.87V3199.64C973.022 3201.69 966.211 3203.01 955.811 3203.01H955.225C929.297 3203.01 908.203 3186.68 908.203 3154.89V3151.96C908.203 3120.61 928.052 3101.64 955.371 3101.64H955.884C984.888 3101.64 1001.07 3121.93 1001.07 3144.64V3147.42C1001.07 3166.17 993.384 3173.57 985.4 3173.57C980.127 3173.57 974.341 3170.93 974.341 3162.8V3127.87H967.603V3136.95H967.163C966.284 3133.65 962.256 3126.77 952.075 3126.77C939.624 3126.77 932.959 3136.14 932.959 3149.47V3156.28C932.959 3171.15 940.649 3179.5 951.782 3179.5C962.109 3179.5 967.017 3171.88 967.896 3168.51H968.408C969.287 3174.37 975.073 3179.5 984.595 3179.5ZM940.063 3155.48V3149.84C940.063 3138.78 945.63 3132.7 953.613 3132.7C962.329 3132.7 967.383 3139.88 967.383 3149.11V3156.87C967.383 3168.73 960.645 3173.13 953.613 3173.13C946.143 3173.13 940.063 3168.08 940.063 3155.48Z" fill="#AFAFAF" fill-opacity="0.76"/>
<path d="M1054.03 3211.07C1042.46 3211.07 1034.33 3204.84 1033.23 3196.93H1025.1C1026.27 3209.31 1036.82 3218.03 1054.03 3218.03C1071.46 3218.03 1084.64 3208.21 1084.64 3190.78V3114.83H1077.03V3127.94H1076.73C1073.36 3119.88 1063.99 3113.58 1052.93 3113.58C1035.28 3113.58 1023.05 3126.33 1023.05 3147.05V3155.77C1023.05 3176.64 1035.35 3189.32 1052.86 3189.32C1063.84 3189.32 1073.8 3182.65 1076.51 3174.74H1076.81V3190.93C1076.81 3203.45 1067.72 3211.07 1054.03 3211.07ZM1053.81 3120.61C1067.5 3120.61 1076.81 3131.6 1076.81 3147.93V3155.04C1076.81 3171.3 1067.65 3182.21 1053.81 3182.21C1039.82 3182.21 1030.96 3171.52 1030.96 3154.89V3148.08C1030.96 3131.09 1039.75 3120.61 1053.81 3120.61Z" fill="#AFAFAF" fill-opacity="0.76"/>
<path d="M1109.91 3191H1117.75V3142.37C1117.75 3129.84 1125.15 3120.83 1137.23 3120.83C1148.8 3120.83 1155.91 3128.23 1155.91 3141.42V3191H1163.75V3141.71C1163.75 3130.58 1170.56 3120.83 1183.37 3120.83C1194.8 3120.83 1201.9 3128.16 1201.9 3140.68V3191H1209.81V3139C1209.81 3122.74 1199.71 3113.58 1184.69 3113.58C1170.92 3113.58 1163.53 3121.79 1161.47 3127.94H1161.04C1158.54 3119.96 1151.37 3113.58 1138.62 3113.58C1126.61 3113.58 1120.24 3120.69 1118.19 3126.11H1117.75V3114.83H1109.91V3191Z" fill="#AFAFAF" fill-opacity="0.76"/>
<path d="M1253.61 3192.25C1267.09 3192.25 1274.41 3185.07 1277.12 3179.72H1277.42V3191H1285.11V3137.17C1285.11 3121.93 1274.27 3113.58 1258.59 3113.58C1241.67 3113.58 1233.11 3122.37 1231.93 3134.82H1239.48C1240.87 3126.03 1246.73 3120.54 1258.23 3120.54C1269.87 3120.54 1277.2 3126.4 1277.2 3138.34V3148.08H1254.93C1237.72 3148.08 1228.78 3156.58 1228.78 3169.47C1228.78 3183.46 1238.89 3192.25 1253.61 3192.25ZM1255.15 3185.36C1245.04 3185.36 1237.06 3179.57 1237.06 3169.25C1237.06 3160.75 1242.55 3154.75 1255.15 3154.75H1277.2V3165.51C1277.2 3177.38 1267.38 3185.36 1255.15 3185.36Z" fill="#AFAFAF" fill-opacity="0.76"/>
<path d="M1307.08 3095.42C1307.08 3098.79 1309.79 3101.5 1313.16 3101.5C1316.53 3101.5 1319.24 3098.79 1319.24 3095.42C1319.24 3092.05 1316.53 3089.34 1313.16 3089.34C1309.79 3089.34 1307.08 3092.05 1307.08 3095.42ZM1309.2 3191H1317.11V3114.83H1309.2V3191Z" fill="#AFAFAF" fill-opacity="0.76"/>
<path d="M1342.68 3191H1350.59V3085.82H1342.68V3191Z" fill="#AFAFAF" fill-opacity="0.76"/>
<path d="M1373.29 3185.73C1373.29 3189.32 1376.22 3192.25 1379.81 3192.25C1383.4 3192.25 1386.33 3189.32 1386.33 3185.73C1386.33 3182.14 1383.4 3179.21 1379.81 3179.21C1376.22 3179.21 1373.29 3182.14 1373.29 3185.73Z" fill="#AFAFAF" fill-opacity="0.76"/>
<path d="M1404.93 3157.6C1404.93 3178.7 1416.43 3192.25 1435.47 3192.25C1453.78 3192.25 1462.21 3181.7 1464.04 3170.49H1456.27C1454.81 3177.82 1448.73 3184.99 1436.13 3184.99C1421.85 3184.99 1412.84 3174.81 1412.84 3157.31V3148.45C1412.84 3130.79 1421.85 3120.76 1435.77 3120.76C1447.27 3120.76 1454.37 3128.52 1455.91 3136.58H1463.75C1463.01 3125.59 1453.2 3113.58 1435.33 3113.58C1417.02 3113.58 1404.93 3126.62 1404.93 3147.64V3157.6Z" fill="#AFAFAF" fill-opacity="0.76"/>
<path d="M1512.16 3113.58C1492.97 3113.58 1480.66 3127.06 1480.66 3148.23V3157.67C1480.66 3178.84 1493.04 3192.25 1512.16 3192.25C1531.27 3192.25 1543.73 3178.84 1543.73 3157.67V3148.23C1543.73 3127.21 1531.2 3113.58 1512.16 3113.58ZM1512.16 3120.61C1526.29 3120.61 1535.82 3130.87 1535.82 3148.81V3157.09C1535.82 3175.18 1526.29 3185.14 1512.23 3185.14C1497.95 3185.14 1488.57 3175.03 1488.57 3157.09V3148.81C1488.57 3130.72 1498.02 3120.61 1512.16 3120.61Z" fill="#AFAFAF" fill-opacity="0.76"/>
<path d="M1564.75 3191H1572.58V3142.37C1572.58 3129.84 1579.98 3120.83 1592.07 3120.83C1603.64 3120.83 1610.74 3128.23 1610.74 3141.42V3191H1618.58V3141.71C1618.58 3130.58 1625.39 3120.83 1638.21 3120.83C1649.63 3120.83 1656.74 3128.16 1656.74 3140.68V3191H1664.65V3139C1664.65 3122.74 1654.54 3113.58 1639.53 3113.58C1625.76 3113.58 1618.36 3121.79 1616.31 3127.94H1615.87C1613.38 3119.96 1606.2 3113.58 1593.46 3113.58C1581.45 3113.58 1575.07 3120.69 1573.02 3126.11H1572.58V3114.83H1564.75V3191Z" fill="#AFAFAF" fill-opacity="0.76"/>
<path d="M4756 728H4890V2528H4756V728Z" fill="white" fill-opacity="0.08"/>
<path d="M5658 1859H5792V2528H5658V1859Z" fill="white" fill-opacity="0.08"/>
<path d="M4930 0H5072V2528H4930V0Z" fill="white" fill-opacity="0.08"/>
<path d="M5294 640H5436V2528H5294V640Z" fill="white" fill-opacity="0.08"/>
<path d="M5476 1328H5618V2528H5476V1328Z" fill="white" fill-opacity="0.08"/>
<path d="M5112 2039H5254V2528H5112V2039Z" fill="white" fill-opacity="0.08"/>
<path d="M4686 1103.95H4555.1V2528H4686V1103.95Z" fill="white" fill-opacity="0.08"/>
<path d="M3804.9 1998.73H3674V2528H3804.9V1998.73Z" fill="white" fill-opacity="0.08"/>
<path d="M4516.03 528H4377.32V2528H4516.03V528Z" fill="white" fill-opacity="0.08"/>
<path d="M4160.46 1034.33H4021.75V2528H4160.46V1034.33Z" fill="white" fill-opacity="0.08"/>
<path d="M3982.68 1578.63H3843.97V2528H3982.68V1578.63Z" fill="white" fill-opacity="0.08"/>
<path d="M4338.25 2141.13H4199.54V2528H4338.25V2141.13Z" fill="white" fill-opacity="0.08"/>
<path d="M5862 1383.06H5996V2528H5862V1383.06Z" fill="white" fill-opacity="0.08"/>
<path d="M6764 2102.47H6898V2528H6764V2102.47Z" fill="white" fill-opacity="0.08"/>
<path d="M6036 920H6178V2528H6036V920Z" fill="white" fill-opacity="0.08"/>
<path d="M6400 1327.09H6542V2528H6400V1327.09Z" fill="white" fill-opacity="0.08"/>
<path d="M6036 920H6178V2528H6036V920Z" fill="white" fill-opacity="0.08"/>
<path d="M6582 1764.71H6724V2528H6582V1764.71Z" fill="white" fill-opacity="0.08"/>
<path d="M6218 2216.96H6360V2528H6218V2216.96Z" fill="white" fill-opacity="0.08"/>
<path d="M603.991 1929.34L711.109 1620.35H1092.98L1200.1 1929.34H1280.78L940.648 981.498H864.135L524 1929.34H603.991ZM903.783 1075.45L1070.72 1556.33H732.672L901 1075.45H903.783Z" fill="white"/>
<path d="M1429.64 1929.34H1504.06V1487.43C1504.06 1372.6 1571.53 1262.65 1716.21 1262.65C1838.63 1262.65 1912.36 1344.77 1912.36 1470.03V1929.34H1986.79V1459.59C1986.79 1287.7 1878.98 1193.75 1732.21 1193.75C1603.53 1193.75 1532.58 1264.74 1506.84 1325.28H1504.06V1205.58H1429.64V1929.34Z" fill="white"/>
<path d="M2399.26 1941.17C2527.25 1941.17 2596.81 1872.97 2622.54 1822.17H2625.32V1929.34H2698.36V1417.84C2698.36 1273.09 2595.41 1193.75 2446.56 1193.75C2285.88 1193.75 2204.5 1277.26 2193.37 1395.57H2265.02C2278.23 1312.06 2333.88 1259.87 2443.08 1259.87C2553.68 1259.87 2623.24 1315.54 2623.24 1428.97V1521.53H2411.78C2248.32 1521.53 2163.46 1602.26 2163.46 1724.74C2163.46 1857.66 2259.45 1941.17 2399.26 1941.17ZM2413.87 1875.75C2317.88 1875.75 2242.06 1820.78 2242.06 1722.65C2242.06 1641.93 2294.23 1584.86 2413.87 1584.86H2623.24V1687.16C2623.24 1799.9 2530.03 1875.75 2413.87 1875.75Z" fill="white"/>
<path d="M2929.29 1929.34H3004.41V930H2929.29V1929.34Z" fill="white"/>
<path d="M3763.98 1205.58H3684.68L3462.79 1844.44H3459.32L3235.34 1205.58H3152.57L3422.45 1939.78L3401.58 1999.63C3377.24 2074.09 3332.03 2108.89 3259.69 2108.89C3241.6 2108.89 3219.34 2107.5 3204.04 2104.71V2169.43C3223.52 2173.61 3243.69 2175 3265.25 2175C3365.41 2175 3429.41 2130.46 3475.31 2006.59L3503.14 1932.82L3763.98 1205.58Z" fill="white"/>
<path d="M3959.43 1205.58H3850.92V1270.3H3959.43V1750.49C3959.43 1882.02 3995.6 1936.3 4142.37 1936.3C4171.58 1936.3 4195.93 1933.52 4209.14 1930.73V1868.1C4195.23 1870.88 4177.84 1872.27 4159.06 1872.27C4067.25 1872.27 4034.55 1848.61 4034.55 1760.23V1270.3H4200.8V1205.58H4034.55V1027.43H3959.43V1205.58Z" fill="white"/>
<path d="M4364.95 1021.17C4364.95 1053.18 4390.69 1078.93 4422.68 1078.93C4454.68 1078.93 4480.42 1053.18 4480.42 1021.17C4480.42 989.153 4454.68 963.404 4422.68 963.404C4390.69 963.404 4364.95 989.153 4364.95 1021.17ZM4385.12 1929.34H4460.24V1205.58H4385.12V1929.34Z" fill="white"/>
<path d="M4664.05 1612C4664.05 1812.43 4773.25 1941.17 4954.1 1941.17C5127.99 1941.17 5207.98 1840.96 5225.37 1734.48H5151.64C5137.73 1804.07 5080 1872.27 4960.36 1872.27C4824.72 1872.27 4739.17 1775.54 4739.17 1609.22V1525.01C4739.17 1357.29 4824.72 1261.95 4956.88 1261.95C5066.09 1261.95 5133.56 1335.72 5148.17 1412.27H5222.59C5215.64 1307.88 5122.43 1193.75 4952.71 1193.75C4778.82 1193.75 4664.05 1317.63 4664.05 1517.36V1612Z" fill="white"/>
<path d="M5605.85 1941.17C5733.84 1941.17 5803.39 1872.97 5829.13 1822.17H5831.91V1929.34H5904.95V1417.84C5904.95 1273.09 5802 1193.75 5653.15 1193.75C5492.47 1193.75 5411.09 1277.26 5399.96 1395.57H5471.61C5484.82 1312.06 5540.47 1259.87 5649.67 1259.87C5760.27 1259.87 5829.83 1315.54 5829.83 1428.97V1521.53H5618.37C5454.91 1521.53 5370.05 1602.26 5370.05 1724.74C5370.05 1857.66 5466.04 1941.17 5605.85 1941.17ZM5620.46 1875.75C5524.47 1875.75 5448.65 1820.78 5448.65 1722.65C5448.65 1641.93 5500.82 1584.86 5620.46 1584.86H5829.83V1687.16C5829.83 1799.9 5736.62 1875.75 5620.46 1875.75Z" fill="white"/>
<path d="M6135.88 1929.34H6211V930H6135.88V1929.34Z" fill="white"/>
<path d="M4351.76 2087.9C4294.16 2087.9 4252 2130.79 4252 2201.39V2237.91C4252 2306.05 4290.24 2351.16 4351.52 2351.16C4398.33 2351.16 4422.85 2321.74 4431.92 2301.4H4432.9V2346.99H4458.39V1995H4431.92V2135.7H4430.94C4421.13 2114.37 4396.13 2087.9 4351.76 2087.9ZM4353.48 2111.68C4402.01 2111.68 4432.41 2150.4 4432.41 2203.59V2236.2C4432.41 2288.16 4403.73 2327.38 4353.72 2327.38C4311.32 2327.38 4278.47 2295.76 4278.47 2235.71V2203.84C4278.47 2141.09 4313.03 2111.68 4353.48 2111.68Z" fill="white"/>
<path d="M4607.42 2351.16C4652.52 2351.16 4677.03 2327.13 4686.1 2309.24H4687.08V2346.99H4712.82V2166.83C4712.82 2115.84 4676.54 2087.9 4624.09 2087.9C4567.47 2087.9 4538.79 2117.31 4534.87 2158.98H4560.11C4564.77 2129.57 4584.38 2111.19 4622.86 2111.19C4661.84 2111.19 4686.35 2130.79 4686.35 2170.75V2203.35H4611.83C4554.23 2203.35 4524.33 2231.78 4524.33 2274.92C4524.33 2321.74 4558.15 2351.16 4607.42 2351.16ZM4612.57 2328.11C4578.74 2328.11 4552.02 2308.75 4552.02 2274.19C4552.02 2245.75 4570.41 2225.66 4612.57 2225.66H4686.35V2261.69C4686.35 2301.4 4653.5 2328.11 4612.57 2328.11Z" fill="white"/>
<path d="M4781.7 2160.21C4781.7 2204.33 4817.73 2217.57 4866.02 2229.58C4909.16 2240.36 4936.37 2246.98 4936.37 2278.6C4936.37 2309.73 4908.67 2328.11 4868.22 2328.11C4821.9 2328.11 4802.53 2302.62 4800.57 2280.56H4774.59C4774.59 2317.33 4805.47 2351.16 4866.51 2351.16C4920.68 2351.16 4962.84 2326.4 4962.84 2276.64C4962.84 2226.88 4920.43 2216.59 4874.11 2206.05C4836.6 2196.98 4807.93 2188.64 4807.93 2158C4807.93 2126.14 4835.13 2110.94 4869.45 2110.94C4916.76 2110.94 4930.97 2139.62 4931.96 2158.98H4957.2C4957.2 2125.65 4931.96 2087.9 4870.43 2087.9C4821.16 2087.9 4781.7 2112.17 4781.7 2160.21Z" fill="white"/>
<path d="M5029.27 2346.99H5055.74V2191.34C5055.74 2150.89 5079.76 2112.17 5130.75 2112.17C5173.89 2112.17 5199.87 2141.09 5199.87 2185.21V2346.99H5226.34V2181.53C5226.34 2120.99 5187.86 2087.9 5136.38 2087.9C5091.04 2087.9 5065.54 2112.9 5056.72 2134.23H5055.74V1995H5029.27V2346.99Z" fill="white"/>
<path d="M5412.14 2351.16C5468.03 2351.16 5511.66 2310.96 5511.66 2238.16V2200.65C5511.66 2129.57 5469.99 2087.9 5412.63 2087.9C5366.79 2087.9 5340.81 2117.8 5332.23 2135.7H5331.25V1995H5304.78V2346.99H5330.27V2301.89H5331.25C5342.28 2324.93 5366.3 2351.16 5412.14 2351.16ZM5410.67 2327.38C5361.4 2327.38 5330.76 2290.86 5330.76 2235.21V2202.86C5330.76 2150.16 5359.93 2111.68 5410.67 2111.68C5453.07 2111.68 5485.18 2144.28 5485.18 2203.35V2235.21C5485.18 2296.74 5451.36 2327.38 5410.67 2327.38Z" fill="white"/>
<path d="M5676.13 2087.9C5611.91 2087.9 5570.73 2133 5570.73 2203.84V2235.46C5570.73 2306.3 5612.16 2351.16 5676.13 2351.16C5740.11 2351.16 5781.78 2306.3 5781.78 2235.46V2203.84C5781.78 2133.49 5739.86 2087.9 5676.13 2087.9ZM5676.13 2111.43C5723.44 2111.43 5755.3 2145.75 5755.3 2205.8V2233.5C5755.3 2294.04 5723.44 2327.38 5676.38 2327.38C5628.58 2327.38 5597.2 2293.55 5597.2 2233.5V2205.8C5597.2 2145.26 5628.82 2111.43 5676.13 2111.43Z" fill="white"/>
<path d="M5919.29 2351.16C5964.39 2351.16 5988.9 2327.13 5997.97 2309.24H5998.95V2346.99H6024.69V2166.83C6024.69 2115.84 5988.41 2087.9 5935.96 2087.9C5879.33 2087.9 5850.65 2117.31 5846.73 2158.98H5871.98C5876.64 2129.57 5896.25 2111.19 5934.73 2111.19C5973.7 2111.19 5998.21 2130.79 5998.21 2170.75V2203.35H5923.7C5866.1 2203.35 5836.19 2231.78 5836.19 2274.92C5836.19 2321.74 5870.02 2351.16 5919.29 2351.16ZM5924.43 2328.11C5890.61 2328.11 5863.89 2308.75 5863.89 2274.19C5863.89 2245.75 5882.27 2225.66 5924.43 2225.66H5998.21V2261.69C5998.21 2301.4 5965.37 2328.11 5924.43 2328.11Z" fill="white"/>
<path d="M6103.62 2346.99H6129.84V2194.04C6129.84 2146.48 6149.94 2112.9 6196.27 2112.9C6204.85 2112.9 6213.67 2113.88 6216.86 2114.37V2089.62C6212.94 2089.12 6207.3 2088.14 6199.46 2088.14C6157.3 2088.14 6138.42 2111.92 6130.82 2133.49H6129.84V2092.07H6103.62V2346.99Z" fill="white"/>
<path d="M6357.31 2087.9C6299.71 2087.9 6257.55 2130.79 6257.55 2201.39V2237.91C6257.55 2306.05 6295.79 2351.16 6357.07 2351.16C6403.88 2351.16 6428.4 2321.74 6437.46 2301.4H6438.45V2346.99H6463.94V1995H6437.46V2135.7H6436.48C6426.68 2114.37 6401.68 2087.9 6357.31 2087.9ZM6359.03 2111.68C6407.56 2111.68 6437.96 2150.4 6437.96 2203.59V2236.2C6437.96 2288.16 6409.28 2327.38 6359.27 2327.38C6316.87 2327.38 6284.02 2295.76 6284.02 2235.71V2203.84C6284.02 2141.09 6318.58 2111.68 6359.03 2111.68Z" fill="white"/>
<path d="M170.598 2851.39V2814.34C170.598 2754.65 138.419 2717.12 85.5418 2717.12C32.5026 2717.12 0 2754.49 0 2814.18V2851.39C0 2910.92 32.1792 2947.16 85.0567 2947.16C138.096 2947.16 170.598 2910.92 170.598 2851.39ZM152.973 2813.53V2852.04C152.973 2902.02 126.13 2931.14 85.2184 2931.14C44.6305 2931.14 17.6258 2902.02 17.6258 2852.04V2813.53C17.6258 2763.55 44.7922 2733.13 85.2184 2733.13C125.806 2733.13 152.973 2763.55 152.973 2813.53Z" fill="#C4C4C4"/>
<path d="M218.14 2942.31H235.442V2841.36C235.442 2809.98 248.702 2787.81 279.264 2787.81C284.924 2787.81 290.745 2788.46 292.847 2788.78V2772.44C290.26 2772.12 286.541 2771.47 281.366 2771.47C253.553 2771.47 241.102 2787.17 236.089 2801.4H235.442V2774.06H218.14V2942.31Z" fill="#C4C4C4"/>
<path d="M388.091 2986.63C362.542 2986.63 344.593 2972.88 342.167 2955.41H324.218C326.805 2982.75 350.091 3002 388.091 3002C426.577 3002 455.684 2980.32 455.684 2941.82V2774.06H438.866V2803.02H438.22C430.781 2785.22 410.083 2771.31 385.666 2771.31C346.695 2771.31 319.69 2799.46 319.69 2845.24V2864.49C319.69 2910.6 346.857 2938.59 385.504 2938.59C409.76 2938.59 431.751 2923.86 437.735 2906.39H438.381V2942.14C438.381 2969.81 418.33 2986.63 388.091 2986.63ZM387.606 2786.84C417.845 2786.84 438.381 2811.11 438.381 2847.18V2862.88C438.381 2898.79 418.168 2922.89 387.606 2922.89C356.721 2922.89 337.154 2899.27 337.154 2862.55V2847.51C337.154 2809.98 356.559 2786.84 387.606 2786.84Z" fill="#C4C4C4"/>
<path d="M554.162 2945.06C583.916 2945.06 600.086 2929.2 606.069 2917.39H606.716V2942.31H623.695V2823.4C623.695 2789.75 599.763 2771.31 565.158 2771.31C527.804 2771.31 508.885 2790.72 506.297 2818.23H522.953C526.025 2798.81 538.962 2786.68 564.349 2786.68C590.06 2786.68 606.231 2799.62 606.231 2825.99V2847.51H557.073C519.072 2847.51 499.344 2866.27 499.344 2894.74C499.344 2925.64 521.659 2945.06 554.162 2945.06ZM557.558 2929.85C535.242 2929.85 517.617 2917.07 517.617 2894.26C517.617 2875.49 529.745 2862.23 557.558 2862.23H606.231V2886.01C606.231 2912.22 584.562 2929.85 557.558 2929.85Z" fill="#C4C4C4"/>
<path d="M675.764 2942.31H693.066V2839.58C693.066 2812.89 708.752 2787.33 742.386 2787.33C770.846 2787.33 787.987 2806.42 787.987 2835.54V2942.31H805.289V2833.11C805.289 2793.15 780.225 2771.31 746.105 2771.31C716.19 2771.31 699.696 2787.81 693.713 2801.89H693.066V2774.06H675.764V2942.31Z" fill="#C4C4C4"/>
<path d="M853.316 2731.19C853.316 2738.63 859.299 2744.62 866.737 2744.62C874.175 2744.62 880.159 2738.63 880.159 2731.19C880.159 2723.75 874.175 2717.77 866.737 2717.77C859.299 2717.77 853.316 2723.75 853.316 2731.19ZM858.005 2942.31H875.469V2774.06H858.005V2942.31Z" fill="#C4C4C4"/>
<path d="M919.453 2942.31H1039.6V2926.94H941.121V2926.13L1039.11 2788.14V2774.06H919.615V2789.59H1017.28V2790.24L919.453 2928.56V2942.31Z" fill="#C4C4C4"/>
<path d="M1076.79 2731.19C1076.79 2738.63 1082.77 2744.62 1090.21 2744.62C1097.65 2744.62 1103.63 2738.63 1103.63 2731.19C1103.63 2723.75 1097.65 2717.77 1090.21 2717.77C1082.77 2717.77 1076.79 2723.75 1076.79 2731.19ZM1081.48 2942.31H1098.94V2774.06H1081.48V2942.31Z" fill="#C4C4C4"/>
<path d="M1153.76 2942.31H1171.07V2839.58C1171.07 2812.89 1186.75 2787.33 1220.39 2787.33C1248.85 2787.33 1265.99 2806.42 1265.99 2835.54V2942.31H1283.29V2833.11C1283.29 2793.15 1258.22 2771.31 1224.1 2771.31C1194.19 2771.31 1177.7 2787.81 1171.71 2801.89H1171.07V2774.06H1153.76V2942.31Z" fill="#C4C4C4"/>
<path d="M1395.83 2986.63C1370.29 2986.63 1352.34 2972.88 1349.91 2955.41H1331.96C1334.55 2982.75 1357.83 3002 1395.83 3002C1434.32 3002 1463.43 2980.32 1463.43 2941.82V2774.06H1446.61V2803.02H1445.96C1438.52 2785.22 1417.83 2771.31 1393.41 2771.31C1354.44 2771.31 1327.43 2799.46 1327.43 2845.24V2864.49C1327.43 2910.6 1354.6 2938.59 1393.25 2938.59C1417.5 2938.59 1439.5 2923.86 1445.48 2906.39H1446.12V2942.14C1446.12 2969.81 1426.07 2986.63 1395.83 2986.63ZM1395.35 2786.84C1425.59 2786.84 1446.12 2811.11 1446.12 2847.18V2862.88C1446.12 2898.79 1425.91 2922.89 1395.35 2922.89C1364.46 2922.89 1344.9 2899.27 1344.9 2862.55V2847.51C1344.9 2809.98 1364.3 2786.84 1395.35 2786.84Z" fill="#C4C4C4"/>
<path d="M1645.35 2942.31H1663.62L1744.63 2721.97H1724.9L1655.21 2919.5H1654.4L1585.19 2721.97H1565.3L1645.35 2942.31Z" fill="#C4C4C4"/>
<path d="M1776 2731.19C1776 2738.63 1781.99 2744.62 1789.42 2744.62C1796.86 2744.62 1802.85 2738.63 1802.85 2731.19C1802.85 2723.75 1796.86 2717.77 1789.42 2717.77C1781.99 2717.77 1776 2723.75 1776 2731.19ZM1780.69 2942.31H1798.16V2774.06H1780.69V2942.31Z" fill="#C4C4C4"/>
<path d="M1913.45 2945.06C1951.61 2945.06 1971.99 2922.25 1976.19 2898.95H1958.57C1954.85 2914.64 1940.62 2929.85 1913.94 2929.85C1882.4 2929.85 1863 2906.39 1863 2867.57V2861.26H1978.62V2849.93C1978.62 2800.43 1953.07 2771.31 1912 2771.31C1870.76 2771.31 1845.54 2800.59 1845.54 2848.96V2867.4C1845.54 2915.78 1871.08 2945.06 1913.45 2945.06ZM1863 2846.05V2845.57C1863 2810.14 1882.4 2786.68 1912 2786.68C1941.59 2786.68 1960.99 2809.98 1960.99 2845.57V2846.05H1863Z" fill="#C4C4C4"/>
<path d="M2219.56 2774.06H2201.61L2165.23 2918.2H2164.26L2119.95 2774.06H2102.81L2058.66 2918.2H2057.69L2021.31 2774.06H2003.36L2048.47 2942.31H2066.59L2111.05 2799.3H2111.7L2156.33 2942.31H2174.28L2219.56 2774.06Z" fill="#C4C4C4"/>
<path d="M2365.25 2945.06C2395.01 2945.06 2411.18 2929.2 2417.16 2917.39H2417.81V2942.31H2434.79V2823.4C2434.79 2789.75 2410.86 2771.31 2376.25 2771.31C2338.9 2771.31 2319.98 2790.72 2317.39 2818.23H2334.05C2337.12 2798.81 2350.05 2786.68 2375.44 2786.68C2401.15 2786.68 2417.32 2799.62 2417.32 2825.99V2847.51H2368.17C2330.16 2847.51 2310.44 2866.27 2310.44 2894.74C2310.44 2925.64 2332.75 2945.06 2365.25 2945.06ZM2368.65 2929.85C2346.33 2929.85 2328.71 2917.07 2328.71 2894.26C2328.71 2875.49 2340.84 2862.23 2368.65 2862.23H2417.32V2886.01C2417.32 2912.22 2395.65 2929.85 2368.65 2929.85Z" fill="#C4C4C4"/>
<path d="M2486.86 2942.31H2504.16V2839.58C2504.16 2812.89 2519.84 2787.33 2553.48 2787.33C2581.94 2787.33 2599.08 2806.42 2599.08 2835.54V2942.31H2616.38V2833.11C2616.38 2793.15 2591.32 2771.31 2557.2 2771.31C2527.28 2771.31 2510.79 2787.81 2504.81 2801.89H2504.16V2774.06H2486.86V2942.31Z" fill="#C4C4C4"/>
<path d="M2726.34 2771.31C2688.34 2771.31 2660.53 2799.62 2660.53 2846.21V2870.32C2660.53 2915.29 2685.75 2945.06 2726.18 2945.06C2757.06 2945.06 2773.24 2925.64 2779.22 2912.22H2779.87V2942.31H2796.68V2710H2779.22V2802.86H2778.57C2772.1 2788.78 2755.61 2771.31 2726.34 2771.31ZM2727.47 2787C2759.49 2787 2779.54 2812.56 2779.54 2847.67V2869.18C2779.54 2903.48 2760.62 2929.36 2727.63 2929.36C2699.66 2929.36 2677.99 2908.5 2677.99 2868.86V2847.83C2677.99 2806.42 2700.79 2787 2727.47 2787Z" fill="#C4C4C4"/>
<path d="M2920.87 2721.97V2942.31H2983.61C3050.88 2942.31 3081.28 2901.7 3081.28 2831.98C3081.28 2762.58 3050.24 2721.97 2983.61 2721.97H2920.87ZM2938.5 2738.15H2983.13C3037.95 2738.15 3063.17 2772.61 3063.17 2831.98C3063.17 2891.83 3038.27 2926.13 2983.13 2926.13H2938.5V2738.15Z" fill="#C4C4C4"/>
<path d="M3169.9 2945.06C3199.65 2945.06 3215.82 2929.2 3221.8 2917.39H3222.45V2942.31H3239.43V2823.4C3239.43 2789.75 3215.5 2771.31 3180.89 2771.31C3143.54 2771.31 3124.62 2790.72 3122.03 2818.23H3138.69C3141.76 2798.81 3154.7 2786.68 3180.08 2786.68C3205.8 2786.68 3221.97 2799.62 3221.97 2825.99V2847.51H3172.81C3134.81 2847.51 3115.08 2866.27 3115.08 2894.74C3115.08 2925.64 3137.39 2945.06 3169.9 2945.06ZM3173.29 2929.85C3150.98 2929.85 3133.35 2917.07 3133.35 2894.26C3133.35 2875.49 3145.48 2862.23 3173.29 2862.23H3221.97V2886.01C3221.97 2912.22 3200.3 2929.85 3173.29 2929.85Z" fill="#C4C4C4"/>
<path d="M3300.07 2774.06H3274.84V2789.11H3300.07V2900.73C3300.07 2931.31 3308.48 2943.92 3342.6 2943.92C3349.39 2943.92 3355.05 2943.28 3358.12 2942.63V2928.07C3354.89 2928.72 3350.84 2929.04 3346.48 2929.04C3325.13 2929.04 3317.53 2923.54 3317.53 2903V2789.11H3356.18V2774.06H3317.53V2732.65H3300.07V2774.06Z" fill="#C4C4C4"/>
<path d="M3440.59 2945.06C3470.34 2945.06 3486.51 2929.2 3492.5 2917.39H3493.14V2942.31H3510.12V2823.4C3510.12 2789.75 3486.19 2771.31 3451.59 2771.31C3414.23 2771.31 3395.31 2790.72 3392.73 2818.23H3409.38C3412.45 2798.81 3425.39 2786.68 3450.78 2786.68C3476.49 2786.68 3492.66 2799.62 3492.66 2825.99V2847.51H3443.5C3405.5 2847.51 3385.77 2866.27 3385.77 2894.74C3385.77 2925.64 3408.09 2945.06 3440.59 2945.06ZM3443.99 2929.85C3421.67 2929.85 3404.05 2917.07 3404.05 2894.26C3404.05 2875.49 3416.17 2862.23 3443.99 2862.23H3492.66V2886.01C3492.66 2912.22 3470.99 2929.85 3443.99 2929.85Z" fill="#C4C4C4"/>
<path d="M3631.4 2942.31H3648.87V2710H3631.4V2942.31Z" fill="#C4C4C4"/>
<path d="M3748.48 2945.06C3778.23 2945.06 3794.4 2929.2 3800.38 2917.39H3801.03V2942.31H3818.01V2823.4C3818.01 2789.75 3794.08 2771.31 3759.47 2771.31C3722.12 2771.31 3703.2 2790.72 3700.61 2818.23H3717.27C3720.34 2798.81 3733.28 2786.68 3758.66 2786.68C3784.37 2786.68 3800.55 2799.62 3800.55 2825.99V2847.51H3751.39C3713.39 2847.51 3693.66 2866.27 3693.66 2894.74C3693.66 2925.64 3715.97 2945.06 3748.48 2945.06ZM3751.87 2929.85C3729.56 2929.85 3711.93 2917.07 3711.93 2894.26C3711.93 2875.49 3724.06 2862.23 3751.87 2862.23H3800.55V2886.01C3800.55 2912.22 3778.88 2929.85 3751.87 2929.85Z" fill="#C4C4C4"/>
<path d="M3988.45 2774.06H3970.01L3918.43 2922.57H3917.62L3865.55 2774.06H3846.31L3909.05 2944.73L3904.2 2958.64C3898.54 2975.95 3888.03 2984.04 3871.21 2984.04C3867.01 2984.04 3861.83 2983.72 3858.27 2983.07V2998.12C3862.8 2999.09 3867.49 2999.41 3872.5 2999.41C3895.79 2999.41 3910.67 2989.06 3921.34 2960.26L3927.81 2943.11L3988.45 2774.06Z" fill="#C4C4C4"/>
<path d="M4079 2945.06C4117.16 2945.06 4137.54 2922.25 4141.74 2898.95H4124.12C4120.4 2914.64 4106.17 2929.85 4079.49 2929.85C4047.95 2929.85 4028.55 2906.39 4028.55 2867.57V2861.26H4144.17V2849.93C4144.17 2800.43 4118.62 2771.31 4077.55 2771.31C4036.31 2771.31 4011.08 2800.59 4011.08 2848.96V2867.4C4011.08 2915.78 4036.63 2945.06 4079 2945.06ZM4028.55 2846.05V2845.57C4028.55 2810.14 4047.95 2786.68 4077.55 2786.68C4107.14 2786.68 4126.54 2809.98 4126.54 2845.57V2846.05H4028.55Z" fill="#C4C4C4"/>
<path d="M4189.93 2942.31H4207.23V2841.36C4207.23 2809.98 4220.49 2787.81 4251.05 2787.81C4256.71 2787.81 4262.54 2788.46 4264.64 2788.78V2772.44C4262.05 2772.12 4258.33 2771.47 4253.16 2771.47C4225.34 2771.47 4212.89 2787.17 4207.88 2801.4H4207.23V2774.06H4189.93V2942.31Z" fill="#C4C4C4"/>
<path d="M4292.29 2819.03C4292.29 2848.15 4316.06 2856.89 4347.92 2864.82C4376.38 2871.93 4394.32 2876.3 4394.32 2897.17C4394.32 2917.72 4376.05 2929.85 4349.37 2929.85C4318.81 2929.85 4306.03 2913.02 4304.74 2898.47H4287.6C4287.6 2922.73 4307.97 2945.06 4348.24 2945.06C4383.98 2945.06 4411.79 2928.72 4411.79 2895.88C4411.79 2863.04 4383.81 2856.24 4353.25 2849.29C4328.51 2843.3 4309.59 2837.8 4309.59 2817.58C4309.59 2796.55 4327.54 2786.52 4350.18 2786.52C4381.39 2786.52 4390.77 2805.45 4391.41 2818.23H4408.07C4408.07 2796.22 4391.41 2771.31 4350.83 2771.31C4318.32 2771.31 4292.29 2787.33 4292.29 2819.03Z" fill="#C4C4C4"/>
<path d="M4719.19 2774.06H4701.24L4664.86 2918.2H4663.89L4619.58 2774.06H4602.44L4558.29 2918.2H4557.32L4520.94 2774.06H4502.99L4548.11 2942.31H4566.22L4610.69 2799.3H4611.33L4655.96 2942.31H4673.91L4719.19 2774.06Z" fill="#C4C4C4"/>
<path d="M4751.05 2731.19C4751.05 2738.63 4757.03 2744.62 4764.47 2744.62C4771.91 2744.62 4777.89 2738.63 4777.89 2731.19C4777.89 2723.75 4771.91 2717.77 4764.47 2717.77C4757.03 2717.77 4751.05 2723.75 4751.05 2731.19ZM4755.73 2942.31H4773.2V2774.06H4755.73V2942.31Z" fill="#C4C4C4"/>
<path d="M4836.59 2774.06H4811.36V2789.11H4836.59V2900.73C4836.59 2931.31 4845 2943.92 4879.12 2943.92C4885.91 2943.92 4891.57 2943.28 4894.64 2942.63V2928.07C4891.41 2928.72 4887.36 2929.04 4883 2929.04C4861.65 2929.04 4854.05 2923.54 4854.05 2903V2789.11H4892.7V2774.06H4854.05V2732.65H4836.59V2774.06Z" fill="#C4C4C4"/>
<path d="M4934.58 2942.31H4952.04V2839.58C4952.04 2812.89 4967.89 2787.33 5001.53 2787.33C5029.99 2787.33 5047.13 2806.42 5047.13 2835.54V2942.31H5064.59V2833.11C5064.59 2793.15 5039.2 2771.31 5005.25 2771.31C4975.33 2771.31 4958.51 2787.81 4952.69 2801.89H4952.04V2710H4934.58V2942.31Z" fill="#C4C4C4"/>
<path d="M5112.62 2731.19C5112.62 2738.63 5118.6 2744.62 5126.04 2744.62C5133.48 2744.62 5139.46 2738.63 5139.46 2731.19C5139.46 2723.75 5133.48 2717.77 5126.04 2717.77C5118.6 2717.77 5112.62 2723.75 5112.62 2731.19ZM5117.31 2942.31H5134.77V2774.06H5117.31V2942.31Z" fill="#C4C4C4"/>
<path d="M5189.59 2942.31H5206.89V2839.58C5206.89 2812.89 5222.58 2787.33 5256.21 2787.33C5284.67 2787.33 5301.81 2806.42 5301.81 2835.54V2942.31H5319.11V2833.11C5319.11 2793.15 5294.05 2771.31 5259.93 2771.31C5230.01 2771.31 5213.52 2787.81 5207.54 2801.89H5206.89V2774.06H5189.59V2942.31Z" fill="#C4C4C4"/>
<path d="M5426 2885.36C5426.49 2911.57 5445.89 2947.16 5502.33 2947.16C5546.79 2947.16 5580.43 2924.67 5580.43 2884.55C5580.43 2849.61 5558.11 2835.54 5521.41 2825.51L5489.71 2816.93C5464.32 2810.14 5451.23 2798.17 5451.23 2776.49C5451.23 2749.63 5472.41 2732.97 5505.07 2732.97C5541.62 2732.97 5557.79 2754 5559.08 2774.87H5576.87C5576.39 2739.12 5545.82 2716.79 5505.4 2716.79C5464.65 2716.79 5433.12 2739.6 5433.12 2777.3C5433.12 2809.81 5455.11 2826.15 5483.57 2833.76L5516.23 2842.49C5546.63 2850.42 5562.16 2861.42 5562.16 2885.69C5562.16 2912.7 5539.19 2930.98 5504.43 2930.98C5462.38 2930.98 5445.24 2906.23 5443.95 2885.36H5426Z" fill="#C4C4C4"/>
<path d="M5820.72 2774.06H5802.77L5766.39 2918.2H5765.42L5721.11 2774.06H5703.97L5659.83 2918.2H5658.86L5622.47 2774.06H5604.52L5649.64 2942.31H5667.75L5712.22 2799.3H5712.86L5757.5 2942.31H5775.44L5820.72 2774.06Z" fill="#C4C4C4"/>
<path d="M5852.58 2731.19C5852.58 2738.63 5858.56 2744.62 5866 2744.62C5873.44 2744.62 5879.42 2738.63 5879.42 2731.19C5879.42 2723.75 5873.44 2717.77 5866 2717.77C5858.56 2717.77 5852.58 2723.75 5852.58 2731.19ZM5857.27 2942.31H5874.73V2774.06H5857.27V2942.31Z" fill="#C4C4C4"/>
<path d="M5938.12 2942.31H5955.58V2789.11H5994.23V2774.06H5955.58V2754.81C5955.58 2732.32 5965.29 2725.21 5985.01 2725.21C5989.38 2725.21 5993.42 2725.69 5995.85 2726.02V2711.13C5993.58 2710.65 5988.41 2710 5983.4 2710C5953.64 2710 5938.12 2722.78 5938.12 2753.84V2774.06H5912.89V2789.11H5938.12V2942.31Z" fill="#C4C4C4"/>
<path d="M6043.55 2774.06H6018.32V2789.11H6043.55V2900.73C6043.55 2931.31 6051.96 2943.92 6086.08 2943.92C6092.87 2943.92 6098.53 2943.28 6101.6 2942.63V2928.07C6098.37 2928.72 6094.33 2929.04 6089.96 2929.04C6068.61 2929.04 6061.01 2923.54 6061.01 2903V2789.11H6099.66V2774.06H6061.01V2732.65H6043.55V2774.06Z" fill="#C4C4C4"/>
<path d="M6221.1 2930.82C6181.65 2930.82 6158.52 2905.42 6158.52 2866.11V2721.97H6141.06V2867.89C6141.06 2914.97 6170.33 2947.16 6221.1 2947.16C6271.88 2947.16 6301.31 2914.97 6301.31 2867.89V2721.97H6283.68V2866.11C6283.68 2905.58 6260.72 2930.82 6221.1 2930.82Z" fill="#C4C4C4"/>
<path d="M6376.99 2942.31V2721.97H6359.36V2942.31H6376.99Z" fill="#C4C4C4"/>
<path d="M6502.15 2942.31L6527.05 2870.48H6615.82L6640.73 2942.31H6659.48L6580.41 2721.97H6562.62L6483.55 2942.31H6502.15ZM6571.84 2743.81L6610.65 2855.6H6532.06L6571.19 2743.81H6571.84Z" fill="#C4C4C4"/>
<path d="M6764.11 2945.06C6800.33 2945.06 6829.92 2918.69 6829.92 2870.32V2845.89C6829.92 2799.46 6802.11 2771.31 6764.92 2771.31C6734.03 2771.31 6718.02 2790.89 6711.71 2803.5H6711.07V2774.06H6694.25V2996.99H6711.71V2914H6712.36C6719.31 2928.07 6735.32 2945.06 6764.11 2945.06ZM6763.62 2929.36C6731.44 2929.36 6711.39 2903.64 6711.39 2868.05V2847.18C6711.39 2814.02 6730.31 2786.84 6763.14 2786.84C6792.08 2786.84 6812.46 2809 6812.46 2847.35V2867.89C6812.46 2909.14 6790.3 2929.36 6763.62 2929.36Z" fill="#C4C4C4"/>
<path d="M6946.19 2945.06C6982.41 2945.06 7012 2918.69 7012 2870.32V2845.89C7012 2799.46 6984.19 2771.31 6946.99 2771.31C6916.11 2771.31 6900.1 2790.89 6893.79 2803.5H6893.15V2774.06H6876.33V2996.99H6893.79V2914H6894.44C6901.39 2928.07 6917.4 2945.06 6946.19 2945.06ZM6945.7 2929.36C6913.52 2929.36 6893.47 2903.64 6893.47 2868.05V2847.18C6893.47 2814.02 6912.39 2786.84 6945.22 2786.84C6974.16 2786.84 6994.54 2809 6994.54 2847.35V2867.89C6994.54 2909.14 6972.38 2929.36 6945.7 2929.36Z" fill="#C4C4C4"/>
</svg>
